Coordinates
version=1
nRows=5
nColumns=40
inDegrees=yes

Units are S.I. units (second, meters, Newtons, ...)
Angles are in degrees.

endheader
time	pelvis_tilt	pelvis_list	pelvis_rotation	pelvis_tx	pelvis_ty	pelvis_tz	hip_flexion_r	hip_adduction_r	hip_rotation_r	knee_angle_r	knee_angle_r_beta	ankle_angle_r	subtalar_angle_r	mtp_angle_r	hip_flexion_l	hip_adduction_l	hip_rotation_l	knee_angle_l	knee_angle_l_beta	ankle_angle_l	subtalar_angle_l	mtp_angle_l	lumbar_extension	lumbar_bending	lumbar_rotation	arm_flex_r	arm_add_r	arm_rot_r	elbow_flex_r	pro_sup_r	wrist_flex_r	wrist_dev_r	arm_flex_l	arm_add_l	arm_rot_l	elbow_flex_l	pro_sup_l	wrist_flex_l	wrist_dev_l
     17.36000000	     -2.90799252	     -6.48844665	     -0.81496808	      1.03725055	      0.92769944	      0.52701981	     11.23925135	      7.72734526	    -10.17873548	     17.54002131	     17.54002131	     11.43082339	     -3.68930731	     -5.16080433	      7.56707606	    -15.00289867	     -3.93312254	     40.33343686	     40.33343686	     10.25100817	    -16.21072631	     -8.16732711	     -7.91492085	      6.65998511	      1.02594286	     -4.27564717	    -15.34524443	     -4.63607795	     27.31161200	     46.10935336	      0.00000000	      0.00000000	     18.64890721	    -11.42669622	     -8.35676225	     58.90703268	     45.99481741	      0.00000000	      0.00000000
     17.38478571	     -2.48133855	     -6.46697018	     -0.20094211	      1.03728852	      0.92696796	      0.52944270	     10.89969550	      7.85176203	    -10.21834898	     18.34709711	     18.34709711	     12.07400730	     -4.67025811	     -5.27493502	     10.51031577	    -15.49494282	     -2.79198549	     46.02320761	     46.02320761	      7.83173912	    -17.68365437	     -7.99341345	     -8.15455490	      6.50711770	      0.91050472	     -1.67897367	    -15.05362309	     -4.62542586	     28.17833157	     46.09850793	      0.00000000	      0.00000000	     15.99703822	    -10.75108751	     -7.62058940	     55.81261504	     45.90338715	      0.00000000	      0.00000000
     17.40957143	     -1.99780277	     -6.46029599	      0.44338341	      1.03723093	      0.92608708	      0.53183679	     10.55983639	      8.02834190	    -10.09836865	     19.28593146	     19.28593146	     12.86872992	     -5.91219428	     -4.82905789	     13.45858828	    -15.76474818	     -1.37028092	     51.64030765	     51.64030765	      7.01314415	    -18.30291959	     -3.15162725	     -8.39178904	      6.40282272	      1.41557954	      1.01803633	    -14.87060752	     -4.41222652	     28.16540043	     46.11988148	      0.00000000	      0.00000000	     14.70059380	     -9.75085608	     -6.02502398	     49.57359606	     45.79958054	      0.00000000	      0.00000000
     17.43435714	     -1.55057649	     -6.47721093	      1.12277946	      1.03709445	      0.92482430	      0.53416258	     10.30276445	      8.24403421	     -9.99536903	     20.29521281	     20.29521281	     13.66689756	     -7.20644222	     -4.40731548	     16.33428424	    -15.88863312	      0.09449875	     56.69187633	     56.69187633	      6.87702097	    -18.73956758	      3.15636620	     -8.56744557	      6.29561831	      1.51756442	      3.86349032	    -14.66914968	     -4.46310949	     29.01366595	     46.11907402	      0.00000000	      0.00000000	     12.84479948	     -8.99373476	     -4.67959453	     44.29685308	     45.70361355	      0.00000000	      0.00000000
     17.45914286	     -1.02693954	     -6.43478345	      1.84675647	      1.03674712	      0.92355677	      0.53632125	     10.05867481	      8.39019490	     -9.94090979	     21.46021523	     21.46021523	     14.50917048	     -8.54341982	     -3.92590641	     18.90038762	    -15.86301147	      1.39956209	     60.85042647	     60.85042647	      7.24108272	    -18.98570521	      9.97810111	     -9.00148535	      6.15364088	      1.55612014	      6.82555215	    -14.48577268	     -4.56366620	     30.11865920	     46.10815338	      0.00000000	      0.00000000	     11.07782904	     -8.37888861	     -3.32219503	     39.00898367	     45.59064748	      0.00000000	      0.00000000
